solid OpenSCAD_Model
  facet normal -1 0 0
    outer loop
      vertex 0 0 0
      vertex 0 -23.5295 17.0585
      vertex 0 -10 17.0585
    endloop
  endfacet
  facet normal -1 0 0
    outer loop
      vertex 0 0 0
      vertex 0 -31.1765 17.0585
      vertex 0 -23.5295 17.0585
    endloop
  endfacet
  facet normal -1 0 0
    outer loop
      vertex 0 -70 1.55431e-014
      vertex 0 -31.1765 17.0585
      vertex 0 0 0
    endloop
  endfacet
  facet normal -1 -0 0
    outer loop
      vertex 0 -31.1765 17.0585
      vertex 0 -70 1.55431e-014
      vertex 0 -60 17.0585
    endloop
  endfacet
  facet normal -1 0 0
    outer loop
      vertex 0 -10 17.0585
      vertex 0 1.33227e-014 60
      vertex 0 0 0
    endloop
  endfacet
  facet normal -1 -0 0
    outer loop
      vertex 0 1.33227e-014 60
      vertex 0 -10 17.0585
      vertex 0 -28.6517 60
    endloop
  endfacet
  facet normal -1 0 0
    outer loop
      vertex 0 -34.706 25.882
      vertex 0 -23.5295 17.0585
      vertex 0 -31.1765 17.0585
    endloop
  endfacet
  facet normal -1 0 0
    outer loop
      vertex 0 -34.706 25.882
      vertex 0 -35.2945 43.529
      vertex 0 -23.5295 17.0585
    endloop
  endfacet
  facet normal -1 0 -0
    outer loop
      vertex 0 -35.2945 43.529
      vertex 0 -34.706 25.882
      vertex 0 -42.9415 25.882
    endloop
  endfacet
  facet normal -1 0 0
    outer loop
      vertex 0 -70 60
      vertex 0 -60 17.0585
      vertex 0 -70 1.55431e-014
    endloop
  endfacet
  facet normal -1 0 0
    outer loop
      vertex 0 -60 17.0585
      vertex 0 -70 60
      vertex 0 -41.7826 60
    endloop
  endfacet
  facet normal 0 -1 0
    outer loop
      vertex 0 -70 60
      vertex 10 -70 17.0585
      vertex 28.2174 -70 60
    endloop
  endfacet
  facet normal 0 -1 0
    outer loop
      vertex 0 -70 1.55431e-014
      vertex 38.8235 -70 17.0585
      vertex 10 -70 17.0585
    endloop
  endfacet
  facet normal 0 -1 0
    outer loop
      vertex 70 -70 1.55431e-014
      vertex 38.8235 -70 17.0585
      vertex 0 -70 1.55431e-014
    endloop
  endfacet
  facet normal 0 -1 0
    outer loop
      vertex 38.8235 -70 17.0585
      vertex 70 -70 1.55431e-014
      vertex 46.4705 -70 17.0585
    endloop
  endfacet
  facet normal 0 -1 0
    outer loop
      vertex 0 -70 1.55431e-014
      vertex 10 -70 17.0585
      vertex 0 -70 60
    endloop
  endfacet
  facet normal 0 -1 0
    outer loop
      vertex 35.294 -70 25.882
      vertex 34.7055 -70 43.529
      vertex 27.0585 -70 25.882
    endloop
  endfacet
  facet normal 0 -1 0
    outer loop
      vertex 46.4705 -70 17.0585
      vertex 35.294 -70 25.882
      vertex 38.8235 -70 17.0585
    endloop
  endfacet
  facet normal 0 -1 0
    outer loop
      vertex 35.294 -70 25.882
      vertex 46.4705 -70 17.0585
      vertex 34.7055 -70 43.529
    endloop
  endfacet
  facet normal 0 -1 0
    outer loop
      vertex 60 -70 17.0585
      vertex 70 -70 60
      vertex 41.3483 -70 60
    endloop
  endfacet
  facet normal 0 -1 0
    outer loop
      vertex 60 -70 17.0585
      vertex 70 -70 1.55431e-014
      vertex 70 -70 60
    endloop
  endfacet
  facet normal 0 -1 0
    outer loop
      vertex 46.4705 -70 17.0585
      vertex 70 -70 1.55431e-014
      vertex 60 -70 17.0585
    endloop
  endfacet
  facet normal 1 0 0
    outer loop
      vertex 70 -41.7826 60
      vertex 70 -70 60
      vertex 70 -60 17.0585
    endloop
  endfacet
  facet normal 1 0 0
    outer loop
      vertex 70 -23.5295 17.0585
      vertex 70 -34.706 25.882
      vertex 70 -31.1765 17.0585
    endloop
  endfacet
  facet normal 1 0 0
    outer loop
      vertex 70 -35.2945 43.529
      vertex 70 -34.706 25.882
      vertex 70 -23.5295 17.0585
    endloop
  endfacet
  facet normal 1 0 0
    outer loop
      vertex 70 -34.706 25.882
      vertex 70 -35.2945 43.529
      vertex 70 -42.9415 25.882
    endloop
  endfacet
  facet normal 1 0 0
    outer loop
      vertex 70 1.33227e-014 60
      vertex 70 -10 17.0585
      vertex 70 0 0
    endloop
  endfacet
  facet normal 1 0 -0
    outer loop
      vertex 70 -10 17.0585
      vertex 70 1.33227e-014 60
      vertex 70 -28.6517 60
    endloop
  endfacet
  facet normal 1 0 0
    outer loop
      vertex 70 -23.5295 17.0585
      vertex 70 0 0
      vertex 70 -10 17.0585
    endloop
  endfacet
  facet normal 1 -0 0
    outer loop
      vertex 70 -31.1765 17.0585
      vertex 70 0 0
      vertex 70 -23.5295 17.0585
    endloop
  endfacet
  facet normal 1 0 0
    outer loop
      vertex 70 -70 1.55431e-014
      vertex 70 -31.1765 17.0585
      vertex 70 -60 17.0585
    endloop
  endfacet
  facet normal 1 0 0
    outer loop
      vertex 70 -31.1765 17.0585
      vertex 70 -70 1.55431e-014
      vertex 70 0 0
    endloop
  endfacet
  facet normal 1 0 0
    outer loop
      vertex 70 -70 1.55431e-014
      vertex 70 -60 17.0585
      vertex 70 -70 60
    endloop
  endfacet
  facet normal -0 0 1
    outer loop
      vertex 41.3483 -41.7826 60
      vertex 70 -70 60
      vertex 70 -41.7826 60
    endloop
  endfacet
  facet normal 0 0 1
    outer loop
      vertex 70 -70 60
      vertex 41.3483 -41.7826 60
      vertex 41.3483 -70 60
    endloop
  endfacet
  facet normal -0 0 1
    outer loop
      vertex 0 1.33227e-014 60
      vertex 28.2174 -28.6517 60
      vertex 28.2174 1.33227e-014 60
    endloop
  endfacet
  facet normal 0 0 1
    outer loop
      vertex 28.2174 -28.6517 60
      vertex 0 1.33227e-014 60
      vertex 0 -28.6517 60
    endloop
  endfacet
  facet normal -0 0 1
    outer loop
      vertex 41.3483 1.33227e-014 60
      vertex 70 -28.6517 60
      vertex 70 1.33227e-014 60
    endloop
  endfacet
  facet normal 0 0 1
    outer loop
      vertex 70 -28.6517 60
      vertex 41.3483 1.33227e-014 60
      vertex 41.3483 -28.6517 60
    endloop
  endfacet
  facet normal -0 0 1
    outer loop
      vertex 0 -41.7826 60
      vertex 28.2174 -70 60
      vertex 28.2174 -41.7826 60
    endloop
  endfacet
  facet normal 0 0 1
    outer loop
      vertex 28.2174 -70 60
      vertex 0 -41.7826 60
      vertex 0 -70 60
    endloop
  endfacet
  facet normal 0 1 -2.22045e-016
    outer loop
      vertex 70 1.33227e-014 60
      vertex 60 3.78775e-015 17.0585
      vertex 41.3483 1.33227e-014 60
    endloop
  endfacet
  facet normal 0 1 -2.22045e-016
    outer loop
      vertex 70 0 0
      vertex 46.4705 3.78775e-015 17.0585
      vertex 60 3.78775e-015 17.0585
    endloop
  endfacet
  facet normal 0 1 -2.22045e-016
    outer loop
      vertex 46.4705 3.78775e-015 17.0585
      vertex 70 0 0
      vertex 38.8235 3.78775e-015 17.0585
    endloop
  endfacet
  facet normal 0 1 -2.22045e-016
    outer loop
      vertex 0 0 0
      vertex 38.8235 3.78775e-015 17.0585
      vertex 70 0 0
    endloop
  endfacet
  facet normal 0 1 -2.22045e-016
    outer loop
      vertex 70 0 0
      vertex 60 3.78775e-015 17.0585
      vertex 70 1.33227e-014 60
    endloop
  endfacet
  facet normal 0 1 -2.22045e-016
    outer loop
      vertex 46.4705 3.78775e-015 17.0585
      vertex 35.294 5.74696e-015 25.882
      vertex 34.7055 9.66538e-015 43.529
    endloop
  endfacet
  facet normal 0 1 -2.22045e-016
    outer loop
      vertex 35.294 5.74696e-015 25.882
      vertex 46.4705 3.78775e-015 17.0585
      vertex 38.8235 3.78775e-015 17.0585
    endloop
  endfacet
  facet normal 0 1 -2.22045e-016
    outer loop
      vertex 34.7055 9.66538e-015 43.529
      vertex 35.294 5.74696e-015 25.882
      vertex 27.0585 5.74696e-015 25.882
    endloop
  endfacet
  facet normal 0 1 -2.22045e-016
    outer loop
      vertex 10 3.78775e-015 17.0585
      vertex 0 1.33227e-014 60
      vertex 28.2174 1.33227e-014 60
    endloop
  endfacet
  facet normal 0 1 -2.22045e-016
    outer loop
      vertex 10 3.78775e-015 17.0585
      vertex 0 0 0
      vertex 0 1.33227e-014 60
    endloop
  endfacet
  facet normal 0 1 -2.22045e-016
    outer loop
      vertex 38.8235 3.78775e-015 17.0585
      vertex 0 0 0
      vertex 10 3.78775e-015 17.0585
    endloop
  endfacet
  facet normal 0 -2.22045e-016 -1
    outer loop
      vertex 0 -70 1.55431e-014
      vertex 70 0 0
      vertex 70 -70 1.55431e-014
    endloop
  endfacet
  facet normal -0 -2.22045e-016 -1
    outer loop
      vertex 70 0 0
      vertex 0 -70 1.55431e-014
      vertex 0 0 0
    endloop
  endfacet
  facet normal 0 0 -1
    outer loop
      vertex 27.0585 -70 25.882
      vertex 35.294 -56.2567 25.882
      vertex 35.294 -70 25.882
    endloop
  endfacet
  facet normal -0 0 -1
    outer loop
      vertex 35.294 -56.2567 25.882
      vertex 27.0585 -70 25.882
      vertex 27.0585 -56.2567 25.882
    endloop
  endfacet
  facet normal 0 0 -1
    outer loop
      vertex 27.0585 -13.8325 25.882
      vertex 35.294 5.74696e-015 25.882
      vertex 35.294 -13.8325 25.882
    endloop
  endfacet
  facet normal -0 0 -1
    outer loop
      vertex 35.294 5.74696e-015 25.882
      vertex 27.0585 -13.8325 25.882
      vertex 27.0585 5.74696e-015 25.882
    endloop
  endfacet
  facet normal 0 0 -1
    outer loop
      vertex 42.5488 -42.9415 25.882
      vertex 35.294 -34.706 25.882
      vertex 42.5488 -34.706 25.882
    endloop
  endfacet
  facet normal 0 0 -1
    outer loop
      vertex 27.0585 -42.9415 25.882
      vertex 35.294 -34.706 25.882
      vertex 42.5488 -42.9415 25.882
    endloop
  endfacet
  facet normal 0 0 -1
    outer loop
      vertex 27.0585 -27.4512 25.882
      vertex 35.294 -34.706 25.882
      vertex 27.0585 -42.9415 25.882
    endloop
  endfacet
  facet normal 0 0 -1
    outer loop
      vertex 35.294 -34.706 25.882
      vertex 27.0585 -27.4512 25.882
      vertex 35.294 -27.4512 25.882
    endloop
  endfacet
  facet normal 0 0 -1
    outer loop
      vertex 0 -42.9415 25.882
      vertex 13.7433 -34.706 25.882
      vertex 13.7433 -42.9415 25.882
    endloop
  endfacet
  facet normal -0 0 -1
    outer loop
      vertex 13.7433 -34.706 25.882
      vertex 0 -42.9415 25.882
      vertex 0 -34.706 25.882
    endloop
  endfacet
  facet normal 0 0 -1
    outer loop
      vertex 56.1675 -42.9415 25.882
      vertex 70 -34.706 25.882
      vertex 70 -42.9415 25.882
    endloop
  endfacet
  facet normal -0 0 -1
    outer loop
      vertex 70 -34.706 25.882
      vertex 56.1675 -42.9415 25.882
      vertex 56.1675 -34.706 25.882
    endloop
  endfacet
  facet normal -0.917556 0 0.397606
    outer loop
      vertex 34.7055 -70 43.529
      vertex 27.0585 -56.2567 25.882
      vertex 27.0585 -70 25.882
    endloop
  endfacet
  facet normal -0.917556 0 0.397606
    outer loop
      vertex 27.0585 -56.2567 25.882
      vertex 34.7055 -70 43.529
      vertex 34.7055 -48.7702 43.529
    endloop
  endfacet
  facet normal -0.917556 0 0.397606
    outer loop
      vertex 27.0585 -13.8325 25.882
      vertex 34.7055 9.66538e-015 43.529
      vertex 27.0585 5.74696e-015 25.882
    endloop
  endfacet
  facet normal -0.917556 0 0.397606
    outer loop
      vertex 34.7055 9.66538e-015 43.529
      vertex 27.0585 -13.8325 25.882
      vertex 34.7055 -21.4975 43.529
    endloop
  endfacet
  facet normal -0.917556 0 0.397606
    outer loop
      vertex 34.7055 -35.2945 43.529
      vertex 27.0585 -27.4512 25.882
      vertex 27.0585 -42.9415 25.882
    endloop
  endfacet
  facet normal 0.913807 -0 0.406148
    outer loop
      vertex 34.7055 -70 43.529
      vertex 46.4705 -60 17.0585
      vertex 34.7055 -48.7702 43.529
    endloop
  endfacet
  facet normal 0.913807 0 0.406148
    outer loop
      vertex 46.4705 -60 17.0585
      vertex 34.7055 -70 43.529
      vertex 46.4705 -70 17.0585
    endloop
  endfacet
  facet normal 0.913807 0 0.406148
    outer loop
      vertex 34.7055 9.66538e-015 43.529
      vertex 46.4705 -10 17.0585
      vertex 46.4705 3.78775e-015 17.0585
    endloop
  endfacet
  facet normal 0.913807 0 0.406148
    outer loop
      vertex 46.4705 -10 17.0585
      vertex 34.7055 9.66538e-015 43.529
      vertex 34.7055 -21.4975 43.529
    endloop
  endfacet
  facet normal 0.913807 0 0.406148
    outer loop
      vertex 46.4705 -23.5295 17.0585
      vertex 42.5488 -34.706 25.882
      vertex 46.4705 -31.1765 17.0585
    endloop
  endfacet
  facet normal 0.913807 1.06761e-007 0.406148
    outer loop
      vertex 34.7055 -35.2945 43.529
      vertex 42.5488 -34.706 25.882
      vertex 46.4705 -23.5295 17.0585
    endloop
  endfacet
  facet normal 0.913807 0 0.406148
    outer loop
      vertex 42.5488 -34.706 25.882
      vertex 34.7055 -35.2945 43.529
      vertex 42.5488 -42.9415 25.882
    endloop
  endfacet
  facet normal -0 0 1
    outer loop
      vertex 0 -31.1765 17.0585
      vertex 10 -60 17.0585
      vertex 10 -31.1765 17.0585
    endloop
  endfacet
  facet normal 0 0 1
    outer loop
      vertex 10 -60 17.0585
      vertex 0 -31.1765 17.0585
      vertex 0 -60 17.0585
    endloop
  endfacet
  facet normal -0 1.40977e-007 1
    outer loop
      vertex 0 -10 17.0585
      vertex 10 -23.5295 17.0585
      vertex 10 -10 17.0585
    endloop
  endfacet
  facet normal 0 1.40977e-007 1
    outer loop
      vertex 10 -23.5295 17.0585
      vertex 0 -10 17.0585
      vertex 0 -23.5295 17.0585
    endloop
  endfacet
  facet normal 0 0 1
    outer loop
      vertex 10 -10 17.0585
      vertex 38.8235 -10 17.0585
      vertex 38.8235 3.78775e-015 17.0585
    endloop
  endfacet
  facet normal 0 1.40977e-007 1
    outer loop
      vertex 38.8235 -10 17.0585
      vertex 10 -10 17.0585
      vertex 38.8235 -23.5295 17.0585
    endloop
  endfacet
  facet normal -0 1.40977e-007 1
    outer loop
      vertex 10 -23.5295 17.0585
      vertex 38.8235 -23.5295 17.0585
      vertex 10 -10 17.0585
    endloop
  endfacet
  facet normal 0 0 1
    outer loop
      vertex 38.8235 -31.1765 17.0585
      vertex 10 -31.1765 17.0585
      vertex 38.8235 -60 17.0585
    endloop
  endfacet
  facet normal 0 0 1
    outer loop
      vertex 10 -10 17.0585
      vertex 38.8235 3.78775e-015 17.0585
      vertex 10 3.78775e-015 17.0585
    endloop
  endfacet
  facet normal 0 0 1
    outer loop
      vertex 38.8235 -23.5295 17.0585
      vertex 10 -23.5295 17.0585
      vertex 38.8235 -31.1765 17.0585
    endloop
  endfacet
  facet normal 0 0 1
    outer loop
      vertex 38.8235 -31.1765 17.0585
      vertex 10 -23.5295 17.0585
      vertex 10 -31.1765 17.0585
    endloop
  endfacet
  facet normal 0 0 1
    outer loop
      vertex 10 -60 17.0585
      vertex 38.8235 -60 17.0585
      vertex 10 -31.1765 17.0585
    endloop
  endfacet
  facet normal 0 0 1
    outer loop
      vertex 38.8235 -60 17.0585
      vertex 10 -60 17.0585
      vertex 38.8235 -70 17.0585
    endloop
  endfacet
  facet normal 0 0 1
    outer loop
      vertex 38.8235 -70 17.0585
      vertex 10 -60 17.0585
      vertex 10 -70 17.0585
    endloop
  endfacet
  facet normal -0 0 1
    outer loop
      vertex 38.8235 -31.1765 17.0585
      vertex 46.4705 -60 17.0585
      vertex 46.4705 -31.1765 17.0585
    endloop
  endfacet
  facet normal 0 0 1
    outer loop
      vertex 46.4705 -60 17.0585
      vertex 38.8235 -31.1765 17.0585
      vertex 38.8235 -60 17.0585
    endloop
  endfacet
  facet normal -0 1.40977e-007 1
    outer loop
      vertex 38.8235 -10 17.0585
      vertex 46.4705 -23.5295 17.0585
      vertex 46.4705 -10 17.0585
    endloop
  endfacet
  facet normal 0 1.40977e-007 1
    outer loop
      vertex 46.4705 -23.5295 17.0585
      vertex 38.8235 -10 17.0585
      vertex 38.8235 -23.5295 17.0585
    endloop
  endfacet
  facet normal 0 0 1
    outer loop
      vertex 46.4705 -10 17.0585
      vertex 60 -10 17.0585
      vertex 60 3.78775e-015 17.0585
    endloop
  endfacet
  facet normal 0 1.40977e-007 1
    outer loop
      vertex 60 -10 17.0585
      vertex 46.4705 -10 17.0585
      vertex 60 -23.5295 17.0585
    endloop
  endfacet
  facet normal -0 1.40977e-007 1
    outer loop
      vertex 46.4705 -23.5295 17.0585
      vertex 60 -23.5295 17.0585
      vertex 46.4705 -10 17.0585
    endloop
  endfacet
  facet normal 0 0 1
    outer loop
      vertex 60 -31.1765 17.0585
      vertex 46.4705 -31.1765 17.0585
      vertex 60 -60 17.0585
    endloop
  endfacet
  facet normal 0 0 1
    outer loop
      vertex 46.4705 -10 17.0585
      vertex 60 3.78775e-015 17.0585
      vertex 46.4705 3.78775e-015 17.0585
    endloop
  endfacet
  facet normal 0 0 1
    outer loop
      vertex 60 -23.5295 17.0585
      vertex 46.4705 -23.5295 17.0585
      vertex 60 -31.1765 17.0585
    endloop
  endfacet
  facet normal 0 0 1
    outer loop
      vertex 60 -31.1765 17.0585
      vertex 46.4705 -23.5295 17.0585
      vertex 46.4705 -31.1765 17.0585
    endloop
  endfacet
  facet normal 0 0 1
    outer loop
      vertex 46.4705 -60 17.0585
      vertex 60 -60 17.0585
      vertex 46.4705 -31.1765 17.0585
    endloop
  endfacet
  facet normal 0 0 1
    outer loop
      vertex 60 -60 17.0585
      vertex 46.4705 -60 17.0585
      vertex 60 -70 17.0585
    endloop
  endfacet
  facet normal 0 0 1
    outer loop
      vertex 60 -70 17.0585
      vertex 46.4705 -60 17.0585
      vertex 46.4705 -70 17.0585
    endloop
  endfacet
  facet normal -0 1.40977e-007 1
    outer loop
      vertex 60 -10 17.0585
      vertex 70 -23.5295 17.0585
      vertex 70 -10 17.0585
    endloop
  endfacet
  facet normal 0 1.40977e-007 1
    outer loop
      vertex 70 -23.5295 17.0585
      vertex 60 -10 17.0585
      vertex 60 -23.5295 17.0585
    endloop
  endfacet
  facet normal -0 0 1
    outer loop
      vertex 60 -31.1765 17.0585
      vertex 70 -60 17.0585
      vertex 70 -31.1765 17.0585
    endloop
  endfacet
  facet normal 0 0 1
    outer loop
      vertex 70 -60 17.0585
      vertex 60 -31.1765 17.0585
      vertex 60 -60 17.0585
    endloop
  endfacet
  facet normal -0.917214 0 -0.398394
    outer loop
      vertex 60 -10 17.0585
      vertex 41.3483 1.33227e-014 60
      vertex 60 3.78775e-015 17.0585
    endloop
  endfacet
  facet normal -0.917214 -0 -0.398394
    outer loop
      vertex 41.3483 1.33227e-014 60
      vertex 60 -10 17.0585
      vertex 41.3483 -28.6517 60
    endloop
  endfacet
  facet normal -0.917214 0 -0.398394
    outer loop
      vertex 41.3483 -70 60
      vertex 60 -60 17.0585
      vertex 60 -70 17.0585
    endloop
  endfacet
  facet normal -0.917214 0 -0.398394
    outer loop
      vertex 60 -60 17.0585
      vertex 41.3483 -70 60
      vertex 41.3483 -41.7826 60
    endloop
  endfacet
  facet normal -0.917214 0 -0.398394
    outer loop
      vertex 56.1675 -34.706 25.882
      vertex 60 -23.5295 17.0585
      vertex 60 -31.1765 17.0585
    endloop
  endfacet
  facet normal -0.917214 4.14193e-008 -0.398394
    outer loop
      vertex 56.1675 -34.706 25.882
      vertex 48.5025 -35.2945 43.529
      vertex 60 -23.5295 17.0585
    endloop
  endfacet
  facet normal -0.917214 0 -0.398394
    outer loop
      vertex 48.5025 -35.2945 43.529
      vertex 56.1675 -34.706 25.882
      vertex 56.1675 -42.9415 25.882
    endloop
  endfacet
  facet normal 0.920583 0 -0.390546
    outer loop
      vertex 28.2174 1.33227e-014 60
      vertex 10 -10 17.0585
      vertex 10 3.78775e-015 17.0585
    endloop
  endfacet
  facet normal 0.920583 0 -0.390546
    outer loop
      vertex 10 -10 17.0585
      vertex 28.2174 1.33227e-014 60
      vertex 28.2174 -28.6517 60
    endloop
  endfacet
  facet normal 0.920583 0 -0.390546
    outer loop
      vertex 28.2174 -70 60
      vertex 10 -60 17.0585
      vertex 28.2174 -41.7826 60
    endloop
  endfacet
  facet normal 0.920583 0 -0.390546
    outer loop
      vertex 10 -60 17.0585
      vertex 28.2174 -70 60
      vertex 10 -70 17.0585
    endloop
  endfacet
  facet normal 0.920583 0 -0.390546
    outer loop
      vertex 10 -23.5295 17.0585
      vertex 13.7433 -34.706 25.882
      vertex 10 -31.1765 17.0585
    endloop
  endfacet
  facet normal 0.920583 -5.13447e-008 -0.390546
    outer loop
      vertex 21.2298 -35.2945 43.529
      vertex 13.7433 -34.706 25.882
      vertex 10 -23.5295 17.0585
    endloop
  endfacet
  facet normal 0.920583 0 -0.390546
    outer loop
      vertex 13.7433 -34.706 25.882
      vertex 21.2298 -35.2945 43.529
      vertex 13.7433 -42.9415 25.882
    endloop
  endfacet
  facet normal -0.928473 0 -0.3714
    outer loop
      vertex 35.294 -70 25.882
      vertex 38.8235 -60 17.0585
      vertex 38.8235 -70 17.0585
    endloop
  endfacet
  facet normal -0.928473 0 -0.3714
    outer loop
      vertex 38.8235 -60 17.0585
      vertex 35.294 -70 25.882
      vertex 35.294 -56.2567 25.882
    endloop
  endfacet
  facet normal -0.928473 0 -0.3714
    outer loop
      vertex 38.8235 -10 17.0585
      vertex 35.294 5.74696e-015 25.882
      vertex 38.8235 3.78775e-015 17.0585
    endloop
  endfacet
  facet normal -0.928473 -0 -0.3714
    outer loop
      vertex 35.294 5.74696e-015 25.882
      vertex 38.8235 -10 17.0585
      vertex 35.294 -13.8325 25.882
    endloop
  endfacet
  facet normal -0.928473 0 -0.3714
    outer loop
      vertex 38.8235 -31.1765 17.0585
      vertex 35.294 -27.4512 25.882
      vertex 38.8235 -23.5295 17.0585
    endloop
  endfacet
  facet normal -0.928473 -0 -0.3714
    outer loop
      vertex 35.294 -27.4512 25.882
      vertex 38.8235 -31.1765 17.0585
      vertex 35.294 -34.706 25.882
    endloop
  endfacet
  facet normal 0 -0.917556 0.397606
    outer loop
      vertex 34.7055 -35.2945 43.529
      vertex 27.0585 -42.9415 25.882
      vertex 42.5488 -42.9415 25.882
    endloop
  endfacet
  facet normal 0 -0.917556 0.397606
    outer loop
      vertex 13.7433 -42.9415 25.882
      vertex 0 -35.2945 43.529
      vertex 0 -42.9415 25.882
    endloop
  endfacet
  facet normal 0 -0.917556 0.397606
    outer loop
      vertex 0 -35.2945 43.529
      vertex 13.7433 -42.9415 25.882
      vertex 21.2298 -35.2945 43.529
    endloop
  endfacet
  facet normal 0 -0.917556 0.397606
    outer loop
      vertex 56.1675 -42.9415 25.882
      vertex 70 -35.2945 43.529
      vertex 48.5025 -35.2945 43.529
    endloop
  endfacet
  facet normal 0 -0.917556 0.397606
    outer loop
      vertex 70 -35.2945 43.529
      vertex 56.1675 -42.9415 25.882
      vertex 70 -42.9415 25.882
    endloop
  endfacet
  facet normal 0 0.913807 0.406148
    outer loop
      vertex 10 -23.5295 17.0585
      vertex 0 -35.2945 43.529
      vertex 21.2298 -35.2945 43.529
    endloop
  endfacet
  facet normal 0 0.913807 0.406148
    outer loop
      vertex 0 -35.2945 43.529
      vertex 10 -23.5295 17.0585
      vertex 0 -23.5295 17.0585
    endloop
  endfacet
  facet normal 1.06761e-007 0.913807 0.406148
    outer loop
      vertex 46.4705 -23.5295 17.0585
      vertex 35.294 -27.4512 25.882
      vertex 34.7055 -35.2945 43.529
    endloop
  endfacet
  facet normal 0 0.913807 0.406148
    outer loop
      vertex 35.294 -27.4512 25.882
      vertex 46.4705 -23.5295 17.0585
      vertex 38.8235 -23.5295 17.0585
    endloop
  endfacet
  facet normal 0 0.913807 0.406148
    outer loop
      vertex 34.7055 -35.2945 43.529
      vertex 35.294 -27.4512 25.882
      vertex 27.0585 -27.4512 25.882
    endloop
  endfacet
  facet normal -0 0.913807 0.406148
    outer loop
      vertex 60 -23.5295 17.0585
      vertex 70 -35.2945 43.529
      vertex 70 -23.5295 17.0585
    endloop
  endfacet
  facet normal 0 0.913807 0.406148
    outer loop
      vertex 70 -35.2945 43.529
      vertex 60 -23.5295 17.0585
      vertex 48.5025 -35.2945 43.529
    endloop
  endfacet
  facet normal -0 -0.917214 -0.398394
    outer loop
      vertex 10 -10 17.0585
      vertex 0 -28.6517 60
      vertex 0 -10 17.0585
    endloop
  endfacet
  facet normal 0 -0.917214 -0.398394
    outer loop
      vertex 0 -28.6517 60
      vertex 10 -10 17.0585
      vertex 28.2174 -28.6517 60
    endloop
  endfacet
  facet normal -0 -0.917214 -0.398394
    outer loop
      vertex 35.294 -13.8325 25.882
      vertex 34.7055 -21.4975 43.529
      vertex 27.0585 -13.8325 25.882
    endloop
  endfacet
  facet normal -0 -0.917214 -0.398394
    outer loop
      vertex 46.4705 -10 17.0585
      vertex 35.294 -13.8325 25.882
      vertex 38.8235 -10 17.0585
    endloop
  endfacet
  facet normal 3.61424e-008 -0.917214 -0.398394
    outer loop
      vertex 35.294 -13.8325 25.882
      vertex 46.4705 -10 17.0585
      vertex 34.7055 -21.4975 43.529
    endloop
  endfacet
  facet normal 0 -0.917214 -0.398394
    outer loop
      vertex 60 -10 17.0585
      vertex 70 -28.6517 60
      vertex 41.3483 -28.6517 60
    endloop
  endfacet
  facet normal 0 -0.917214 -0.398394
    outer loop
      vertex 70 -28.6517 60
      vertex 60 -10 17.0585
      vertex 70 -10 17.0585
    endloop
  endfacet
  facet normal 0 0.920583 -0.390546
    outer loop
      vertex 10 -60 17.0585
      vertex 0 -41.7826 60
      vertex 28.2174 -41.7826 60
    endloop
  endfacet
  facet normal 0 0.920583 -0.390546
    outer loop
      vertex 0 -41.7826 60
      vertex 10 -60 17.0585
      vertex 0 -60 17.0585
    endloop
  endfacet
  facet normal 1.90683e-007 0.920583 -0.390546
    outer loop
      vertex 46.4705 -60 17.0585
      vertex 35.294 -56.2567 25.882
      vertex 34.7055 -48.7702 43.529
    endloop
  endfacet
  facet normal 0 0.920583 -0.390547
    outer loop
      vertex 35.294 -56.2567 25.882
      vertex 46.4705 -60 17.0585
      vertex 38.8235 -60 17.0585
    endloop
  endfacet
  facet normal 0 0.920583 -0.390546
    outer loop
      vertex 34.7055 -48.7702 43.529
      vertex 35.294 -56.2567 25.882
      vertex 27.0585 -56.2567 25.882
    endloop
  endfacet
  facet normal 0 0.920583 -0.390546
    outer loop
      vertex 60 -60 17.0585
      vertex 70 -41.7826 60
      vertex 70 -60 17.0585
    endloop
  endfacet
  facet normal 0 0.920583 -0.390546
    outer loop
      vertex 70 -41.7826 60
      vertex 60 -60 17.0585
      vertex 41.3483 -41.7826 60
    endloop
  endfacet
  facet normal -0 -0.928473 -0.3714
    outer loop
      vertex 10 -31.1765 17.0585
      vertex 0 -34.706 25.882
      vertex 0 -31.1765 17.0585
    endloop
  endfacet
  facet normal 0 -0.928473 -0.3714
    outer loop
      vertex 0 -34.706 25.882
      vertex 10 -31.1765 17.0585
      vertex 13.7433 -34.706 25.882
    endloop
  endfacet
  facet normal 0 -0.928473 -0.3714
    outer loop
      vertex 38.8235 -31.1765 17.0585
      vertex 42.5488 -34.706 25.882
      vertex 35.294 -34.706 25.882
    endloop
  endfacet
  facet normal 0 -0.928473 -0.3714
    outer loop
      vertex 42.5488 -34.706 25.882
      vertex 38.8235 -31.1765 17.0585
      vertex 46.4705 -31.1765 17.0585
    endloop
  endfacet
  facet normal 0 -0.928473 -0.3714
    outer loop
      vertex 60 -31.1765 17.0585
      vertex 70 -34.706 25.882
      vertex 56.1675 -34.706 25.882
    endloop
  endfacet
  facet normal 0 -0.928473 -0.3714
    outer loop
      vertex 70 -34.706 25.882
      vertex 60 -31.1765 17.0585
      vertex 70 -31.1765 17.0585
    endloop
  endfacet
endsolid OpenSCAD_Model
